<svg width="542" height="378" viewBox="0 0 542 378" fill="none" xmlns="http://www.w3.org/2000/svg">
<path fill-rule="evenodd" clip-rule="evenodd" d="M109.292 38.2055L4.62813 72.3042L53.9884 109.38L201.971 79.3556C201.971 79.3556 282.672 275.992 280.849 134.93C279.026 -6.13092 109.292 38.2055 109.292 38.2055Z" fill="white"/>
<path fill-rule="evenodd" clip-rule="evenodd" d="M116.7 41.241L40.8836 68.8135L44.8029 372.128L156.22 331.609L259.327 109.366L140.649 49.2991L116.7 41.241ZM152.662 85.3413L85.79 109.661L88.1424 291.711L155.015 267.391C155.015 267.391 221.805 236.711 220.711 152.046C219.617 67.3812 152.662 85.3413 152.662 85.3413Z" fill="white"/>
<path fill-rule="evenodd" clip-rule="evenodd" d="M95.2557 278.781L96.016 337.616L202.417 319.019C202.417 319.019 269.38 221.446 272.101 175.707C274.822 129.968 237.236 91.7663 237.236 91.7663L92.9609 101.187L93.1973 119.483C133.272 97.803 188.816 79.4337 206.602 130.581C235.496 213.666 148.55 259.399 148.55 259.399L95.2557 278.781Z" fill="#F63690"/>
<path d="M5.15691 72.2943L59.5814 80.822L59.5814 376.257L5.15734 359.985L5.15691 72.2943Z" fill="#F63690"/>
<path fill-rule="evenodd" clip-rule="evenodd" d="M171.112 49.0204L59.5872 81.1873L59.5871 377.291L206.926 318.365C206.926 318.365 286.103 285.081 284.381 151.806C282.659 18.53 171.112 49.0204 171.112 49.0204ZM171.386 99.0413L104.514 123.361L104.514 300.365L186.032 268.49C186.032 268.49 239.435 242.564 239.435 165.746C239.434 88.9283 171.386 99.0413 171.386 99.0413Z" fill="#FBD367"/>
<path d="M262.556 79.4304L315.514 93.2236L360.528 70.9812L306.999 63.9146L303.872 65.0065L290.1 69.8145L262.556 79.4304Z" fill="white"/>
<path d="M541.645 6.44634L488.236 0.546387L485.108 1.63837L471.336 6.44634L445.262 16.4338V39.2059L498.042 22.8994L532.643 20.6705L541.645 6.44634Z" fill="white"/>
<path d="M262.556 79.4287L316.014 88.3983V377.359L262.556 362.353V79.4287Z" fill="#F63690"/>
<path d="M445.093 16.1968L498.551 22.7876V310.223L445.093 296.053V16.1968Z" fill="#F63690"/>
<path d="M316.012 88.4545L360.343 70.9783V148.531L498.225 100.407L498.225 22.7864L541.449 6.89893V292.872L498.225 310.22V145.39L360.343 193.514V357.51L316.012 377.077V88.4545Z" fill="#FBD367"/>
<path d="M360.347 148.597L498.442 100.289H445.097L360.347 129.927V148.597Z" fill="white"/>
</svg>
